<svg xmlns="http://www.w3.org/2000/svg" viewBox="0 0 60 36" role="img" aria-label="Apple Pay">
  <rect width="60" height="36" rx="4" fill="#000000"/>
  <g fill="#FFFFFF">
    <path d="M16.5 13.6c-.45.53-1.16.94-1.88.88-.09-.72.27-1.49.69-1.97.45-.55 1.22-.93 1.85-.95.07.74-.22 1.47-.66 2.04zm.65.96c-1.04-.06-1.93.59-2.43.59-.5 0-1.27-.56-2.1-.55-1.08.02-2.08.62-2.63 1.59-1.13 1.94-.3 4.81.81 6.39.54.78 1.18 1.64 2.03 1.61.81-.03 1.13-.52 2.11-.52.98 0 1.27.52 2.13.51.88-.02 1.43-.78 1.97-1.56.61-.89.86-1.75.87-1.79-.02-.01-1.68-.65-1.69-2.55-.02-1.59 1.3-2.36 1.36-2.4-.74-1.1-1.9-1.22-2.31-1.25z"/>
    <path d="M24.6 14.18v9.24h1.43v-3.16h2c1.84 0 3.13-1.26 3.13-3.05 0-1.79-1.26-3.04-3.07-3.04h-3.49zm1.43 1.21h1.66c1.26 0 1.97.67 1.97 1.83 0 1.16-.71 1.84-1.98 1.84h-1.65v-3.67z"/>
    <path d="M32.5 21.36c0 1.21.97 1.99 2.4 1.99.97 0 1.85-.49 2.27-1.27h.04v1.21h1.32v-4.59c0-1.32-1.06-2.18-2.69-2.18-1.51 0-2.62.86-2.66 2.05h1.29c.11-.56.63-.93 1.33-.93.85 0 1.32.4 1.32 1.13v.5l-1.78.11c-1.66.1-2.56.78-2.56 1.99zm1.41-.04c0-.6.49-.98 1.31-1.03l1.62-.1v.5c0 .89-.76 1.52-1.7 1.52-.71 0-1.23-.36-1.23-.89z"/>
    <path d="M40.16 25.93c1.4 0 2.06-.53 2.62-2.13l2.52-7.07h-1.45l-1.69 5.46h-.03l-1.69-5.46h-1.49l2.43 6.74-.13.41c-.22.69-.58.96-1.21.96-.11 0-.33-.01-.42-.03v1.1c.08.02.43.03.54.03z"/>
  </g>
</svg>
