<svg xmlns="http://www.w3.org/2000/svg" viewBox="0 0 60 36" role="img" aria-label="Google Pay">
  <rect width="60" height="36" rx="4" fill="#FFFFFF" stroke="#DADCE0" stroke-width="1"/>
  <g transform="translate(8 11)">
    <path fill="#5F6368" d="M19.4 7.1c0 2.1-1.6 3.7-3.8 3.7-2.1 0-3.8-1.6-3.8-3.7s1.7-3.7 3.8-3.7c1 0 2 .4 2.7 1.1l-.8.7c-.5-.5-1.2-.7-1.9-.7-1.5 0-2.7 1.2-2.7 2.7s1.2 2.7 2.7 2.7c1 0 1.6-.4 2-.8.3-.3.5-.8.6-1.4h-2.6V7h3.7c.1.2.1.4.1.7z"/>
    <path fill="#5F6368" d="M22 8.4v2.4h-1V3.5h2.4c.6 0 1.2.2 1.6.6.4.4.7.9.7 1.5s-.2 1.1-.7 1.5c-.4.4-1 .6-1.6.6H22v.7zm0-3.9v2.2h1.5c.4 0 .7-.1.9-.4.5-.5.5-1.2 0-1.6-.2-.2-.5-.4-.9-.4H22z"/>
    <path fill="#5F6368" d="M27.6 5.6c.7 0 1.3.2 1.7.6.4.4.6.9.6 1.5v3.1h-.9v-.7h-.1c-.4.6-.9.9-1.5.9-.6 0-1-.2-1.4-.5-.4-.3-.6-.7-.6-1.2 0-.5.2-.9.6-1.2.4-.3 1-.5 1.6-.5.6 0 1.1.1 1.5.3v-.2c0-.3-.1-.6-.4-.8-.2-.2-.5-.3-.9-.3-.5 0-1 .2-1.3.7l-.8-.5c.4-.7 1.1-1.2 1.9-1.2zm-1.2 3.7c0 .2.1.4.3.5.2.1.4.2.7.2.4 0 .8-.1 1.1-.4.3-.3.5-.6.5-1-.3-.2-.7-.4-1.3-.4-.4 0-.7.1-1 .3-.2.2-.3.4-.3.7z"/>
    <path fill="#5F6368" d="M34.7 5.7L31.6 13H30.6l1.2-2.5-2.1-4.7H30.7l1.5 3.5 1.4-3.5h1.1z"/>
  </g>
  <g transform="translate(34 7)">
    <path fill="#4285F4" d="M0 6c0 3.3 2.7 6 6 6s6-2.7 6-6-2.7-6-6-6S0 2.7 0 6z"/>
    <path fill="#FFFFFF" d="M9.5 6c0-.3 0-.6-.1-.9H6V7h2c-.1.6-.4 1-.9 1.3v1.1H8.4c.7-.6 1.1-1.5 1.1-2.6z"/>
    <path fill="#34A853" d="M6 9.7c.9 0 1.7-.3 2.4-.8L7 7.6c-.3.2-.7.3-1 .3-.8 0-1.4-.5-1.7-1.3H2.9v1.2c.6 1.1 1.8 1.9 3.1 1.9z"/>
    <path fill="#FBBC04" d="M4.3 6.6c-.1-.2-.1-.5-.1-.7s0-.5.1-.7V4H2.9c-.3.5-.4 1.1-.4 1.7s.1 1.2.4 1.7l1.4-.8z"/>
    <path fill="#EA4335" d="M6 4.3c.5 0 .9.2 1.3.5l.9-1c-.6-.6-1.4-.9-2.2-.9C4.7 2.9 3.5 3.7 2.9 4.8l1.4 1.1c.3-.8.9-1.4 1.7-1.6z"/>
  </g>
</svg>
